# xmcd
#
# Track frame offsets:
# 150
# 16127
# 36431
# 52813
# 72185
# 87247
# 99897
# 119481
# 140791
# 155394
# 169014
# 183850
#
# Disc length: 2644 seconds
#
# Revision: 2
# Processed by: cddbd v1.4PL0 Copyright (c) Steve Scherf et al.
# Submitted via: Axialis_AX_CDPlayer 2.6
#
DISCID=950a520c
DTITLE=Nothin' Fancy - Once Upon a Road
DYEAR=1900
DGENRE=
TTITLE0=I'm Running Away
TTITLE1=Once Upon a Road
TTITLE2=Fallen to My Foe
TTITLE3=You Say I Say
TTITLE4=Do Not Pass Me Up
TTITLE5=Graveltown Road
TTITLE6=The Light Came Shining Down
TTITLE7=Sign of the Times
TTITLE8=I Wonder Where You Are Tonight
TTITLE9=Something's Up We're Going Down
TTITLE10=Make Me a Pallet on Your FLoor
TTITLE11=When the Angels Take My Hand
EXTD=
EXTT0=
EXTT1=
EXTT2=
EXTT3=
EXTT4=
EXTT5=
EXTT6=
EXTT7=
EXTT8=
EXTT9=
EXTT10=
EXTT11=
PLAYORDER=
